# Blender v2.80 (sub 55) OBJ File: 'arrow.blend'
# www.blender.org
mtllib arrow.mtl
o Cylinder
v -0.000000 0.000000 -0.024894
v -0.000000 0.736598 -0.024894
v 0.017603 0.000000 -0.017603
v 0.017603 0.736598 -0.017603
v 0.024894 0.000000 -0.000000
v 0.024894 0.736598 -0.000000
v 0.017603 0.000000 0.017603
v 0.017603 0.736598 0.017603
v -0.000000 0.000000 0.024894
v -0.000000 0.736598 0.024894
v -0.017603 0.000000 0.017603
v -0.017603 0.736598 0.017603
v -0.024894 0.000000 -0.000000
v -0.024894 0.736598 -0.000000
v -0.017603 0.000000 -0.017603
v -0.017603 0.736598 -0.017603
v -0.000000 0.708789 -0.096946
v 0.068551 0.708789 -0.068551
v 0.096946 0.708789 0.000000
v 0.068551 0.708789 0.068551
v -0.000000 0.708789 0.096946
v -0.068551 0.708789 0.068551
v -0.096946 0.708789 -0.000000
v -0.068551 0.708789 -0.068551
v -0.000000 1.005093 -0.000000
v -0.000000 -0.013568 0.000000
v -0.000000 -0.013568 -0.401469
v 0.009594 -0.009594 0.000000
v 0.009594 -0.009594 -0.401469
v 0.013568 -0.000000 0.000000
v 0.013568 -0.000000 -0.401469
v 0.009594 0.009594 0.000000
v 0.009594 0.009594 -0.401469
v -0.000000 0.013568 -0.000000
v -0.000000 0.013568 -0.401469
v -0.009594 0.009594 0.000000
v -0.009594 0.009594 -0.401469
v -0.013568 -0.000000 0.000000
v -0.013568 -0.000000 -0.401469
v -0.009594 -0.009594 0.000000
v -0.009594 -0.009594 -0.401469
v -0.000000 -0.052838 -0.386312
v 0.037362 -0.037362 -0.386312
v 0.052838 0.000000 -0.386312
v 0.037362 0.037362 -0.386312
v -0.000000 0.052838 -0.386312
v -0.037362 0.037362 -0.386312
v -0.052838 -0.000000 -0.386312
v -0.037362 -0.037362 -0.386312
v -0.000000 0.000000 -0.547807
v -0.000000 -0.009722 -0.000000
v 0.287671 -0.009722 -0.000000
v 0.000000 -0.006875 0.006875
v 0.287671 -0.006875 0.006875
v 0.000000 -0.000000 0.009722
v 0.287671 -0.000000 0.009722
v 0.000000 0.006875 0.006875
v 0.287671 0.006875 0.006875
v 0.000000 0.009722 -0.000000
v 0.287671 0.009722 -0.000000
v -0.000000 0.006875 -0.006875
v 0.287671 0.006875 -0.006875
v -0.000000 -0.000000 -0.009722
v 0.287671 -0.000000 -0.009722
v -0.000000 -0.006875 -0.006875
v 0.287671 -0.006875 -0.006875
v 0.276810 -0.037861 -0.000000
v 0.276810 -0.026772 0.026772
v 0.276810 0.000000 0.037861
v 0.276810 0.026772 0.026772
v 0.276810 0.037861 -0.000000
v 0.276810 0.026772 -0.026772
v 0.276810 -0.000000 -0.037861
v 0.276810 -0.026772 -0.026772
v 0.392529 0.000000 -0.000000
v 0.252348 0.181580 0.000000
v 0.224972 0.181580 0.000000
v 0.175556 0.121260 0.000000
v 0.125908 0.181580 0.000000
v 0.098300 0.181580 0.000000
v 0.161636 0.105252 0.000000
v 0.093427 0.023356 0.000000
v 0.121036 0.023356 0.000000
v 0.175556 0.088780 0.000000
v 0.229380 0.023356 0.000000
v 0.256756 0.023356 0.000000
v 0.189244 0.105252 0.000000
v -0.000000 0.307333 -0.472906
v -0.000000 0.307333 -0.432293
v -0.000000 0.204583 -0.385182
v -0.000000 0.307333 -0.336041
v -0.000000 0.307333 -0.295022
v -0.000000 0.163970 -0.365688
v -0.000000 0.031572 -0.303551
v -0.000000 0.031572 -0.343757
v 0.000000 0.646399 -0.043262
v 0.000000 0.490853 -0.043262
v 0.000000 0.490853 -0.075752
v 0.000000 0.583450 -0.075752
v -0.000000 0.486791 -0.225613
v -0.000000 0.646806 -0.225613
v 0.000000 0.646806 -0.193123
v -0.000000 0.549335 -0.193123
vt 0.000000 0.000000
vt 0.000000 0.000000
vt 0.000000 0.000000
vt 0.000000 0.000000
vt 0.000000 0.000000
vt 0.000000 0.000000
vt 0.000000 0.000000
vt 0.000000 0.000000
vt 0.000000 0.000000
vt 0.000000 0.000000
vt 0.000000 0.000000
vt 0.000000 0.000000
vt 0.000000 0.000000
vt 0.000000 0.000000
vt 0.000000 0.000000
vt 0.000000 0.000000
vt 0.000000 0.000000
vt 0.000000 0.000000
vt 0.000000 0.000000
vt 0.000000 0.000000
vt 0.000000 0.000000
vt 0.000000 0.000000
vt 0.000000 0.000000
vt 0.000000 0.000000
vt 0.000000 0.000000
vt 0.000000 0.000000
vt 0.000000 0.000000
vt 0.000000 0.000000
vt 1.000000 1.000000
vt 0.875000 0.500000
vt 1.000000 0.500000
vt 0.875000 1.000000
vt 0.750000 0.500000
vt 0.750000 1.000000
vt 0.625000 0.500000
vt 0.625000 1.000000
vt 0.500000 0.500000
vt 0.500000 1.000000
vt 0.375000 0.500000
vt 0.375000 1.000000
vt 0.250000 0.500000
vt 0.250000 1.000000
vt 0.125000 0.500000
vt 0.125000 1.000000
vt 0.000000 0.500000
vt 0.510000 0.250000
vt 0.580294 0.419706
vt 0.919706 0.080294
vt 0.250000 0.490000
vt 0.250000 0.250000
vt 0.419706 0.419706
vt 0.490000 0.250000
vt 0.419706 0.080294
vt 0.250000 0.010000
vt 0.080294 0.080294
vt 0.010000 0.250000
vt 0.080294 0.419706
vt 0.919706 0.080294
vt 0.580294 0.080294
vt 0.580294 0.419706
vt 1.000000 1.000000
vt 0.875000 0.500000
vt 1.000000 0.500000
vt 0.875000 1.000000
vt 0.750000 0.500000
vt 0.750000 1.000000
vt 0.625000 0.500000
vt 0.500000 1.000000
vt 0.500000 0.500000
vt 0.375000 0.500000
vt 0.375000 1.000000
vt 0.250000 0.500000
vt 0.250000 1.000000
vt 0.125000 0.500000
vt 0.125000 1.000000
vt 0.000000 0.500000
vt 0.919706 0.419706
vt 0.919706 0.080294
vt 0.580294 0.080294
vt 0.250000 0.490000
vt 0.250000 0.250000
vt 0.419706 0.419706
vt 0.490000 0.250000
vt 0.419706 0.080294
vt 0.250000 0.010000
vt 0.080294 0.080294
vt 0.010000 0.250000
vt 0.080294 0.419706
vt 0.919706 0.080294
vt 0.580294 0.080294
vt 0.580294 0.419706
vt 1.000000 1.000000
vt 0.875000 0.500000
vt 1.000000 0.500000
vt 0.875000 1.000000
vt 0.750000 0.500000
vt 0.750000 1.000000
vt 0.625000 0.500000
vt 0.625000 1.000000
vt 0.500000 0.500000
vt 0.500000 1.000000
vt 0.375000 0.500000
vt 0.250000 1.000000
vt 0.250000 0.500000
vt 0.125000 0.500000
vt 0.125000 1.000000
vt 0.000000 0.500000
vt 0.580294 0.419706
vt 0.919706 0.419706
vt 0.919706 0.080294
vt 0.250000 0.490000
vt 0.250000 0.250000
vt 0.419706 0.419706
vt 0.490000 0.250000
vt 0.419706 0.080294
vt 0.250000 0.010000
vt 0.080294 0.080294
vt 0.010000 0.250000
vt 0.080294 0.419706
vt 0.919706 0.080294
vt 0.580294 0.080294
vt 0.580294 0.419706
vt 0.000000 1.000000
vt 0.750000 0.490000
vt 0.919706 0.419706
vt 0.990000 0.250000
vt 0.750000 0.010000
vt 0.580294 0.080294
vt 0.750000 0.490000
vt 0.919706 0.419706
vt 0.990000 0.250000
vt 0.750000 0.010000
vt 0.510000 0.250000
vt 0.625000 1.000000
vt 0.000000 1.000000
vt 0.580294 0.419706
vt 0.750000 0.490000
vt 0.990000 0.250000
vt 0.750000 0.010000
vt 0.510000 0.250000
vt 0.750000 0.490000
vt 0.919706 0.419706
vt 0.990000 0.250000
vt 0.750000 0.010000
vt 0.510000 0.250000
vt 0.375000 1.000000
vt 0.000000 1.000000
vt 0.750000 0.490000
vt 0.990000 0.250000
vt 0.750000 0.010000
vt 0.580294 0.080294
vt 0.510000 0.250000
vt 0.750000 0.490000
vt 0.919706 0.419706
vt 0.990000 0.250000
vt 0.750000 0.010000
vt 0.510000 0.250000
vn 0.0000 -0.0000 1.0000
vn 1.0000 -0.0000 0.0000
vn 0.0000 0.0000 -1.0000
vn 0.5490 -0.6302 -0.5490
vn 0.0000 -0.6302 -0.7764
vn 0.7071 0.0000 -0.7071
vn 0.7764 -0.6302 0.0000
vn 0.5490 -0.6302 0.5490
vn 0.7071 0.0000 0.7071
vn 0.0000 -0.6302 0.7764
vn -0.5490 -0.6302 0.5490
vn -0.7071 0.0000 0.7071
vn -0.7764 -0.6302 0.0000
vn -1.0000 0.0000 0.0000
vn -0.5490 -0.6302 -0.5490
vn -0.7071 0.0000 -0.7071
vn 0.0000 -0.5085 -0.8610
vn 0.0000 1.0000 0.0000
vn 0.6088 -0.5085 -0.6088
vn 0.8610 -0.5085 0.0000
vn 0.6088 -0.5085 0.6088
vn 0.0000 -0.5085 0.8610
vn -0.6088 -0.5085 0.6088
vn -0.8610 -0.5085 0.0000
vn -0.6088 -0.5085 -0.6088
vn 0.0000 -1.0000 0.0000
vn 0.5490 -0.5490 0.6302
vn 0.0000 -0.7764 0.6302
vn 0.7071 -0.7071 0.0000
vn 0.7764 0.0000 0.6302
vn 0.5490 0.5490 0.6302
vn 0.0000 0.7764 0.6302
vn -0.5490 0.5490 0.6302
vn -0.7071 0.7071 0.0000
vn -0.7764 0.0000 0.6302
vn -0.5490 -0.5490 0.6302
vn -0.7071 -0.7071 0.0000
vn 0.0000 -0.8610 0.5085
vn 0.6088 -0.6088 0.5085
vn 0.8610 0.0000 0.5085
vn 0.6088 0.6088 0.5085
vn 0.0000 0.8610 0.5085
vn -0.6088 0.6088 0.5085
vn -0.8610 0.0000 0.5085
vn -0.6088 -0.6088 0.5085
vn -0.6302 -0.5490 0.5490
vn -0.6302 -0.7764 0.0000
vn 0.0000 -0.7071 0.7071
vn -0.6302 0.0000 0.7764
vn -0.6302 0.5490 0.5490
vn 0.0000 0.7071 0.7071
vn -0.6302 0.7764 0.0000
vn -0.6302 0.5490 -0.5490
vn -0.6302 0.0000 -0.7764
vn -0.6302 -0.5490 -0.5490
vn 0.0000 -0.7071 -0.7071
vn -0.5085 -0.8610 0.0000
vn -0.5085 -0.6088 0.6088
vn -0.5085 0.0000 0.8610
vn -0.5085 0.6088 0.6088
vn -0.5085 0.8610 0.0000
vn -0.5085 0.6088 -0.6088
vn -0.5085 0.0000 -0.8610
vn -0.5085 -0.6088 -0.6088
vn 0.7071 0.7071 0.0000
vn 0.0000 0.7071 -0.7071
usemtl None
s off
f 81/1/1 79/2/1 80/3/1
f 81/1/1 78/4/1 79/2/1
f 78/4/1 76/5/1 77/6/1
f 78/4/1 87/7/1 76/5/1
f 81/1/1 87/7/1 78/4/1
f 82/8/1 87/7/1 81/1/1
f 82/8/1 84/9/1 87/7/1
f 84/9/1 86/10/1 87/7/1
f 82/8/1 83/11/1 84/9/1
f 85/12/1 86/10/1 84/9/1
f 93/13/2 91/14/2 92/15/2
f 93/13/2 90/16/2 91/14/2
f 90/16/2 88/17/2 89/18/2
f 90/16/2 95/19/2 88/17/2
f 93/13/2 95/19/2 90/16/2
f 94/20/2 95/19/2 93/13/2
f 98/21/2 96/22/2 97/23/2
f 98/21/2 99/24/2 96/22/2
f 99/24/2 103/25/2 96/22/2
f 100/26/2 103/25/2 99/24/2
f 100/26/2 102/27/2 103/25/2
f 100/26/2 101/28/2 102/27/2
s 1
f 2/29/3 3/30/4 1/31/5
f 4/32/6 5/33/7 3/30/4
f 6/34/2 7/35/8 5/33/7
f 8/36/9 9/37/10 7/35/8
f 10/38/1 11/39/11 9/37/10
f 12/40/12 13/41/13 11/39/11
f 14/42/14 15/43/15 13/41/13
f 16/44/16 1/45/5 15/43/15
f 13/46/13 15/47/15 7/48/8
f 17/49/17 25/50/18 18/51/19
f 18/51/19 25/50/18 19/52/20
f 19/52/20 25/50/18 20/53/21
f 20/53/21 25/50/18 21/54/22
f 21/54/22 25/50/18 22/55/23
f 22/55/23 25/50/18 23/56/24
f 23/56/24 25/50/18 24/57/25
f 24/57/25 25/50/18 17/49/17
f 20/58/21 22/59/23 24/60/25
f 27/61/26 28/62/27 26/63/28
f 29/64/29 30/65/30 28/62/27
f 31/66/2 32/67/31 30/65/30
f 32/67/31 35/68/18 34/69/32
f 35/68/18 36/70/33 34/69/32
f 37/71/34 38/72/35 36/70/33
f 39/73/14 40/74/36 38/72/35
f 41/75/37 26/76/28 40/74/36
f 28/77/27 32/78/31 36/79/33
f 42/80/38 50/81/3 43/82/39
f 43/82/39 50/81/3 44/83/40
f 44/83/40 50/81/3 45/84/41
f 45/84/41 50/81/3 46/85/42
f 46/85/42 50/81/3 47/86/43
f 47/86/43 50/81/3 48/87/44
f 48/87/44 50/81/3 49/88/45
f 49/88/45 50/81/3 42/80/38
f 45/89/41 47/90/43 49/91/45
f 52/92/26 53/93/46 51/94/47
f 54/95/48 55/96/49 53/93/46
f 56/97/1 57/98/50 55/96/49
f 58/99/51 59/100/52 57/98/50
f 60/101/18 61/102/53 59/100/52
f 61/102/53 64/103/3 63/104/54
f 64/103/3 65/105/55 63/104/54
f 66/106/56 51/107/47 65/105/55
f 65/108/55 53/109/46 57/110/50
f 67/111/57 75/112/2 68/113/58
f 68/113/58 75/112/2 69/114/59
f 69/114/59 75/112/2 70/115/60
f 70/115/60 75/112/2 71/116/61
f 71/116/61 75/112/2 72/117/62
f 72/117/62 75/112/2 73/118/63
f 73/118/63 75/112/2 74/119/64
f 74/119/64 75/112/2 67/111/57
f 70/120/60 72/121/62 74/122/64
f 2/29/3 4/32/6 3/30/4
f 4/32/6 6/34/2 5/33/7
f 6/34/2 8/36/9 7/35/8
f 8/36/9 10/38/1 9/37/10
f 10/38/1 12/40/12 11/39/11
f 12/40/12 14/42/14 13/41/13
f 14/42/14 16/44/16 15/43/15
f 16/44/16 2/123/3 1/45/5
f 15/47/15 1/124/5 3/125/4
f 3/125/4 5/126/7 15/47/15
f 5/126/7 7/48/8 15/47/15
f 7/48/8 9/127/10 11/128/11
f 11/128/11 13/46/13 7/48/8
f 24/60/25 17/129/17 18/130/19
f 18/130/19 19/131/20 20/58/21
f 20/58/21 21/132/22 22/59/23
f 22/59/23 23/133/24 24/60/25
f 24/60/25 18/130/19 20/58/21
f 27/61/26 29/64/29 28/62/27
f 29/64/29 31/66/2 30/65/30
f 31/66/2 33/134/65 32/67/31
f 32/67/31 33/134/65 35/68/18
f 35/68/18 37/71/34 36/70/33
f 37/71/34 39/73/14 38/72/35
f 39/73/14 41/75/37 40/74/36
f 41/75/37 27/135/26 26/76/28
f 40/136/36 26/137/28 28/77/27
f 28/77/27 30/138/30 32/78/31
f 32/78/31 34/139/32 36/79/33
f 36/79/33 38/140/35 40/136/36
f 40/136/36 28/77/27 36/79/33
f 49/91/45 42/141/38 43/142/39
f 43/142/39 44/143/40 45/89/41
f 45/89/41 46/144/42 47/90/43
f 47/90/43 48/145/44 49/91/45
f 49/91/45 43/142/39 45/89/41
f 52/92/26 54/95/48 53/93/46
f 54/95/48 56/97/1 55/96/49
f 56/97/1 58/99/51 57/98/50
f 58/99/51 60/101/18 59/100/52
f 60/101/18 62/146/66 61/102/53
f 61/102/53 62/146/66 64/103/3
f 64/103/3 66/106/56 65/105/55
f 66/106/56 52/147/26 51/107/47
f 65/108/55 51/148/47 53/109/46
f 53/109/46 55/149/49 57/110/50
f 57/110/50 59/150/52 61/151/53
f 61/151/53 63/152/54 57/110/50
f 63/152/54 65/108/55 57/110/50
f 74/122/64 67/153/57 68/154/58
f 68/154/58 69/155/59 70/120/60
f 70/120/60 71/156/61 72/121/62
f 72/121/62 73/157/63 74/122/64
f 74/122/64 68/154/58 70/120/60
